# Blender 4.0.2
# www.blender.org
mtllib skybox.mtl
o Cube
v -214.733780 -197.924225 178.338638
v 195.949295 -197.924225 178.338638
v -214.733780 -197.924225 -232.344437
v 195.949295 -197.924225 -232.344437
vn -0.0000 1.0000 -0.0000
vt 0.000000 0.000000
vt 1.000000 0.000000
vt 1.000000 1.000000
vt 0.000000 1.000000
s 0
usemtl Material
f 1/1/1 2/2/1 4/3/1 3/4/1
o Cube.001
v -214.677811 212.787216 178.380768
v -214.677780 -197.895859 178.380768
v -214.677811 212.787216 -232.302307
v -214.677780 -197.895859 -232.302307
vn 1.0000 -0.0000 -0.0000
vt 0.000000 0.000000
vt 1.000000 0.000000
vt 1.000000 1.000000
vt 0.000000 1.000000
s 0
usemtl Material.001
f 5/5/2 6/6/2 8/7/2 7/8/2
o Cube.002
v -214.677811 212.787216 178.380768
v -214.677780 -197.895859 178.380768
v -214.677811 212.787216 -232.302307
v -214.677780 -197.895859 -232.302307
vn 1.0000 -0.0000 -0.0000
vt 0.000000 0.000000
vt 1.000000 0.000000
vt 1.000000 1.000000
vt 0.000000 1.000000
s 0
usemtl Material.003
f 9/9/3 10/10/3 12/11/3 11/12/3
o Cube.004
v 195.726517 -198.163177 178.380768
v 195.726532 212.519897 178.380768
v 195.726517 -198.163177 -232.302307
v 195.726532 212.519897 -232.302307
vn -1.0000 -0.0000 -0.0000
vt 0.000000 0.000000
vt 1.000000 0.000000
vt 1.000000 1.000000
vt 0.000000 1.000000
s 0
usemtl Material.002
f 13/13/4 14/14/4 16/15/4 15/16/4
o Cube.003
v -214.744705 212.138947 178.327713
v 195.938370 212.138824 178.349564
v -214.722855 212.139282 -232.355362
v 195.960220 212.139160 -232.333511
vn -0.0000 1.0000 -0.0000
vt 0.000000 0.000000
vt 1.000000 0.000000
vt 1.000000 1.000000
vt 0.000000 1.000000
s 0
usemtl Material.004
f 17/17/5 18/18/5 20/19/5 19/20/5
o Cube.005
v 195.239075 210.423355 -232.272614
v -215.444000 210.423355 -232.272614
v 195.239075 -200.259720 -232.272598
v -215.444000 -200.259720 -232.272598
vn -0.0000 -0.0000 1.0000
vt 0.000000 0.000000
vt 1.000000 0.000000
vt 1.000000 1.000000
vt 0.000000 1.000000
s 0
usemtl Material.006
f 21/21/6 22/22/6 24/23/6 23/24/6
o Cube.006
v -214.079102 -197.431534 176.130554
v 196.603973 -197.431595 176.130554
v -214.079041 213.251541 176.130569
v 196.604034 213.251480 176.130569
vn -0.0000 -0.0000 1.0000
vt 0.000000 0.000000
vt 1.000000 0.000000
vt 1.000000 1.000000
vt 0.000000 1.000000
s 0
usemtl Material.005
f 25/25/7 26/26/7 28/27/7 27/28/7
